<?xml version="1.0" standalone="no"?>
<!DOCTYPE svg PUBLIC "-//W3C//DTD SVG 20010904//EN"
 "http://www.w3.org/TR/2001/REC-SVG-20010904/DTD/svg10.dtd">
<svg version="1.0" xmlns="http://www.w3.org/2000/svg"
 width="200.000000pt" height="200.000000pt" viewBox="0 0 200.000000 200.000000"
 preserveAspectRatio="xMidYMid meet">
<metadata>
Created by potrace 1.14, written by Peter Selinger 2001-2017
</metadata>
<g transform="translate(0.000000,200.000000) scale(0.100000,-0.100000)"
fill="#000000" stroke="none">
<path d="M297 1031 c-59 -59 -107 -112 -107 -117 0 -16 184 -194 200 -194 9 0
64 49 123 108 l108 108 -15 69 c-8 38 -12 73 -10 77 3 4 21 8 39 8 l35 0 2
-177 3 -178 33 -3 32 -3 0 113 1 113 49 55 49 55 1 -168 0 -168 33 3 32 3 3
115 3 115 44 50 45 50 0 -145 c0 -115 3 -150 16 -168 19 -27 64 -29 87 -4 24
26 21 32 -13 32 l-30 0 0 158 c0 170 -3 182 -51 182 -20 0 -36 -11 -60 -41
l-33 -42 -9 29 c-23 71 -61 73 -123 7 l-44 -48 0 48 c0 47 0 47 -34 47 -19 0
-38 5 -41 10 -9 15 -76 12 -94 -4 -14 -13 -24 -13 -76 0 -33 7 -67 14 -76 14
-8 0 -63 -49 -122 -109z m187 44 c27 -6 28 -7 11 -25 -15 -16 -16 -22 -5 -35
11 -14 15 -14 35 -1 21 14 23 13 29 -7 13 -49 5 -64 -79 -147 l-85 -85 -67 68
-68 67 89 89 c49 49 94 88 100 86 6 -2 24 -6 40 -10z"/>
<path d="M370 965 c-42 -42 -51 -58 -42 -67 9 -9 24 1 68 45 48 48 62 77 36
77 -4 0 -32 -25 -62 -55z"/>
<path d="M421 916 c-33 -33 -51 -59 -46 -66 5 -8 26 7 66 46 51 51 64 74 41
74 -4 0 -32 -24 -61 -54z"/>
<path d="M1150 1101 c-5 -11 -10 -40 -10 -65 0 -44 1 -46 30 -46 29 0 30 2 30
45 l0 45 55 0 55 0 0 -150 0 -150 -43 0 c-43 0 -67 -13 -67 -37 0 -19 130 -18
156 1 17 13 19 30 22 175 l3 161 25 0 c17 0 24 5 24 20 0 19 -7 20 -135 20
-123 0 -135 -2 -145 -19z"/>
<path d="M1490 1101 c-5 -11 -10 -53 -10 -94 0 -85 2 -88 98 -136 55 -28 62
-35 62 -61 0 -30 -1 -30 -53 -30 -52 0 -77 -12 -77 -37 0 -10 21 -13 80 -13
94 0 120 16 120 76 0 53 -13 69 -95 114 l-75 41 0 60 0 59 55 0 55 0 0 -50 0
-50 35 0 35 0 0 48 c0 27 -7 57 -16 70 -14 20 -23 22 -109 22 -83 0 -96 -2
-105 -19z"/>
</g>
</svg>
